<?xml version="1.0" standalone="no"?>
<!DOCTYPE svg PUBLIC "-//W3C//DTD SVG 20010904//EN"
 "http://www.w3.org/TR/2001/REC-SVG-20010904/DTD/svg10.dtd">
<svg version="1.0"
    xmlns="http://www.w3.org/2000/svg" width="1971.000000pt" height="1540.000000pt" viewBox="0 0 1971.000000 1540.000000" preserveAspectRatio="xMidYMid meet">

    <g transform="translate(0.000000,1540.000000) scale(0.100000,-0.100000)" fill="#509B46" stroke="none">
        <path d="M7115 14660 c-132 -18 -233 -53 -340 -117 -45 -28 -407 -383 -1475
-1447 l-1415 -1409 -3 786 -2 787 -510 0 -510 0 0 -1304 0 -1304 -295 -289
c-163 -158 -720 -715 -1238 -1238 -692 -697 -949 -962 -965 -995 -12 -25 -44
-126 -73 -225 -61 -216 -61 -232 7 -465 36 -121 55 -169 89 -221 61 -94 6270
-6301 6367 -6365 267 -178 610 -185 893 -17 46 27 327 302 1201 1175 l1140
1139 2605 199 c1432 109 2622 200 2644 202 22 2 -967 93 -2197 203 -1231 110
-2238 202 -2238 205 0 3 260 265 579 584 l578 578 2597 199 c1429 109 2616
199 2639 201 23 2 -961 92 -2188 202 -1226 109 -2232 201 -2235 203 -2 2 275
284 617 626 399 399 637 645 665 687 l44 65 2695 172 c1482 94 2719 173 2749
174 30 1 42 4 25 6 -54 6 -5403 403 -5434 403 -26 0 -34 8 -67 62 -28 48 -186
213 -662 690 -344 345 -624 629 -621 631 2 2 1005 80 2229 173 1224 93 2214
170 2200 171 -14 2 -1188 106 -2610 233 -1422 127 -2599 232 -2615 235 -24 4
-149 125 -599 580 -313 317 -567 577 -565 579 2 1 1005 79 2229 172 1224 93
2208 170 2187 172 -20 2 -1210 108 -2643 236 l-2606 233 -1141 1140 c-1177
1175 -1177 1175 -1312 1233 -115 49 -304 76 -420 60z m2915 -4155 l2815 -2815
-2818 -2818 -2817 -2817 -2817 2817 -2818 2818 2815 2815 c1548 1548 2817
2815 2820 2815 3 0 1272 -1267 2820 -2815z"/>
        <path d="M6855 10305 c-404 -64 -743 -265 -960 -570 -127 -179 -192 -358 -220
-607 l-6 -58 705 0 706 0 0 625 0 625 -72 -1 c-40 -1 -109 -7 -153 -14z"/>
        <path d="M7320 9697 l0 -627 711 0 712 0 -7 38 c-3 20 -11 70 -17 111 -42 294
-207 576 -450 773 -109 88 -149 113 -267 172 -170 85 -383 142 -569 153 l-113
6 0 -626z"/>
        <path d="M5660 8540 l0 -310 710 0 710 0 0 310 0 310 -710 0 -710 0 0 -310z"/>
        <path d="M7310 8540 l0 -310 715 0 715 0 0 310 0 310 -715 0 -715 0 0 -310z"/>
        <path d="M5660 7700 l0 -310 710 0 710 0 0 310 0 310 -710 0 -710 0 0 -310z"/>
        <path d="M7310 7700 l0 -310 710 0 710 0 0 310 0 310 -710 0 -710 0 0 -310z"/>
        <path d="M5731 6453 c-19 -93 -36 -174 -39 -180 -3 -10 45 -13 218 -13 206 0
221 -1 216 -17 -8 -29 -246 -1161 -246 -1173 0 -7 75 -10 232 -8 l232 3 126
595 125 595 222 3 c221 2 223 3 228 25 19 85 65 310 65 322 0 13 -89 15 -673
15 l-672 0 -34 -167z"/>
        <path d="M7305 6608 c-5 -15 -325 -1534 -325 -1543 0 -3 104 -4 232 -3 l232 3
63 300 c97 461 95 454 103 425 4 -14 58 -184 121 -377 l113 -353 283 0 283 0
-9 24 c-5 13 -78 195 -161 406 -83 211 -149 388 -147 395 4 9 361 448 559 688
l40 47 -275 0 -275 0 -257 -360 c-142 -199 -259 -359 -260 -358 -2 2 30 161
71 353 40 193 74 353 74 358 0 4 -104 7 -230 7 -176 0 -232 -3 -235 -12z"/>
    </g>
</svg>
